<svg id="Capa_1" data-name="Capa 1" xmlns="http://www.w3.org/2000/svg" viewBox="0 0 771.79 347.13"><defs><style>.cls-1{fill:#231f20;}.cls-2{fill:#fff;}.cls-3{opacity:0.25;}</style></defs><title>identidad1</title><rect class="cls-1" x="2.51" width="769.28" height="347.13"/><polygon class="cls-2" points="154.69 241.86 174.75 241.86 174.75 89.86 244.55 137.78 334.37 76.97 334.37 49.66 244.55 112.53 154.69 49.66 154.69 241.86"/><polygon class="cls-2" points="196.12 134.69 196.12 160.97 244.55 194.97 315.62 145.76 315.62 241.86 334.37 241.86 334.37 106.86 244.55 166.63 196.12 134.69"/><polygon class="cls-2" points="439.93 241.86 459.99 241.86 459.99 89.86 529.79 137.78 619.61 76.97 619.61 49.66 529.79 112.53 439.93 49.66 439.93 241.86"/><polygon class="cls-2" points="481.36 134.69 481.36 160.97 529.79 194.97 600.86 145.76 600.86 241.86 619.61 241.86 619.61 106.86 529.79 166.63 481.36 134.69"/><polygon class="cls-2" points="244.53 241.62 439.93 49.66 454.03 65.57 297.47 219.29 439.93 218.89 439.93 241.86 244.53 241.62"/><line class="cls-2" x1="288.02" y1="197.94" x2="302.94" y2="213.74"/><g class="cls-3"><path class="cls-2" d="M246,297.16h-1.47V280l1.47,3.52ZM245.28,280h1.49l7,17.15h-1.49Zm13.14,0h1.49l-6.22,15.2-.72-1.77Zm2.19,0v17.15h-1.49V283.55Z"/><path class="cls-2" d="M264.88,280h1.47v17.15h-1.47Z"/><path class="cls-2" d="M278,296.1v1.34a8.88,8.88,0,0,1,0-17.69v1.34c-3.73.31-6.53,3.27-6.53,7.51A7.16,7.16,0,0,0,278,296.1Zm7.1-6.38H278v-1.31h7.1Zm-6.46-8.67v-1.34a7.76,7.76,0,0,1,6.22,3l-1.23.8A6.29,6.29,0,0,0,278.66,281.06Zm0,16.41v-1.34a6.73,6.73,0,0,0,5-2.14v-3.73h1.41v4.4A8.36,8.36,0,0,1,278.66,297.47Z"/><path class="cls-2" d="M295.28,296v1.47c-4.19-.13-6.38-2.78-6.38-6.89V280h1.49v10.55C290.39,293.92,292.11,295.87,295.28,296Zm.64,1.47V296c3.14-.13,4.86-2.08,4.86-5.45V280h1.49v10.57C302.27,294.71,300.11,297.34,295.92,297.47Z"/><path class="cls-2" d="M306.54,280H308v17.15h-1.47Zm10.88,0v1.34h-8.77V280Zm-.18,7.69V289h-8.59v-1.34Zm.18,8.13v1.34h-8.77v-1.34Z"/><path class="cls-2" d="M320.69,280h1.49v17.15h-1.49Zm9.8,15.82v1.34h-7.66v-1.34Z"/><path class="cls-2" d="M340.11,297.16h-1.7l7-17.15H347Zm9.36-6,.57,1.41h-7.36l.54-1.41Zm4.81,6h-1.7l-5.86-14.71.8-2.06Z"/><path class="cls-2" d="M358.37,280l12.29,17.15h-2L356.52,280Zm-.26,17.15h-1.47V281.47l1.47,2.11Zm11-17.15h1.47v15.84l-1.47-2Z"/><path class="cls-2" d="M382.19,296.1v1.34a8.88,8.88,0,0,1,0-17.69v1.34c-3.73.31-6.53,3.27-6.53,7.51A7.16,7.16,0,0,0,382.19,296.1Zm7.1-6.38h-7.1v-1.31h7.1Zm-6.46-8.67v-1.34a7.76,7.76,0,0,1,6.22,3l-1.23.8A6.29,6.29,0,0,0,382.83,281.06Zm0,16.41v-1.34a6.73,6.73,0,0,0,5-2.14v-3.73h1.41v4.4A8.36,8.36,0,0,1,382.83,297.47Z"/><path class="cls-2" d="M393.07,280h1.47v17.15h-1.47Zm10.88,0v1.34h-8.77V280Zm-.18,7.69V289h-8.59v-1.34Zm.18,8.13v1.34h-8.77v-1.34Z"/><path class="cls-2" d="M407.21,280h1.49v17.15h-1.49Zm9.8,15.82v1.34h-7.66v-1.34Z"/><path class="cls-2" d="M428.15,297.16h-1.47V280l1.47,3.52ZM427.4,280h1.49l7,17.15h-1.49Zm13.14,0H442l-6.22,15.2-.72-1.77Zm2.19,0v17.15h-1.49V283.55Z"/><path class="cls-2" d="M454.44,279.74v1.31c-4,.13-6.53,3.29-6.53,7.54s2.52,7.41,6.53,7.54v1.31c-4.91-.13-8.08-3.91-8.08-8.85S449.52,279.87,454.44,279.74Zm.64,17.69v-1.31c3.88-.21,6.4-3.34,6.4-7.54s-2.52-7.33-6.4-7.51v-1.34c4.78.18,7.95,4,7.95,8.85S459.86,297.26,455.08,297.44Z"/><path class="cls-2" d="M466.29,280h1.49v17.15h-1.49Zm9.8,15.82v1.34h-7.66v-1.34Z"/><path class="cls-2" d="M479.05,297.16h-1.7l7-17.15h1.54Zm9.36-6,.57,1.41h-7.36l.54-1.41Zm4.81,6h-1.7l-5.86-14.71.8-2.06Z"/><path class="cls-2" d="M497.31,280l12.29,17.15h-2L495.46,280Zm-.26,17.15h-1.47V281.47l1.47,2.11ZM508,280h1.47v15.84l-1.47-2Z"/><path class="cls-2" d="M521.16,279.74v1.31c-4,.13-6.53,3.29-6.53,7.54s2.52,7.41,6.53,7.54v1.31c-4.91-.13-8.08-3.91-8.08-8.85S516.24,279.87,521.16,279.74Zm.64,17.69v-1.31c3.88-.21,6.4-3.34,6.4-7.54s-2.52-7.33-6.4-7.51v-1.34c4.78.18,7.95,4,7.95,8.85S526.58,297.26,521.8,297.44Z"/></g></svg>